---
config:
  theme: default
---

erDiagram
    direction TB
    %% --- Bloque 1: Edificio y Espacios ---
    EDIFICIO ||--|{ PLANTA : "contiene"
    PLANTA ||--|{ AREA : "contiene"
    TIPO_AREA ||--o{ AREA : "es de tipo"
    CONEXION ||--|{ AREA : "tiene origen"
    CONEXION ||--|{ AREA : "tiene destino"
    TIPO_CONEXION ||--o{ CONEXION : "es de tipo"

    UBICACION ||--|| AREA : "es"
    UBICACION ||--|| CONEXION : "es"
    TIPO_UBICACION ||--o{ UBICACION : "clasifica"
    
    %% --- Bloque 3: Sensores y Lecturas ---
    UBICACION ||--o{ BALIZA : "ubicada en"
    SENSOR ||--o{ BALIZA_SENSOR : "es parte de"
    BALIZA ||--o{ BALIZA_SENSOR : "conectada a"
    SENSOR ||--o{ SENSOR_VARIABLE : "mide"
    VARIABLE ||--o{ SENSOR_VARIABLE : "usada en"

    BALIZA ||--o{ LECTURA : "genera"
    SENSOR ||--o{ LECTURA : "usa"
    VARIABLE ||--o{ LECTURA : "mide"

    BALIZA ||--o{ HISTORICO_LECTURAS : "genera"
    SENSOR ||--o{ HISTORICO_LECTURAS : "usa"
    VARIABLE ||--o{ HISTORICO_LECTURAS : "mide"

    UBICACION ||--o{ HISTORICO_LECTURAS : "ocurre en"
    UBICACION ||--o{ LECTURA : "ocurre en"
    LECTURA ||--o{ HISTORICO_LECTURAS : "recoge"

    %% --- Bloque 4: Seguridad ---

    ESTADO_ACTUAL ||--|{ ESTADO_HISTORICO_LECTURAS : "basada en"
    HISTORICO_LECTURAS ||--o{ ESTADO_HISTORICO_LECTURAS : "asociada"
    ESTADO_ACTUAL ||--o{ HISTORICO_ESTADO : "recoge"

    EVALUACION_SEGURIDAD }|--|| EVENTO : "tiene"
    EVALUACION_SEGURIDAD ||--o{ ESTADO_ACTUAL : "deriva de"

    EVALUACION_SEGURIDAD ||--o{ HISTORICO_EVALUACION_SEGURIDAD : "recoge"
    UBICACION||--|| EVALUACION_SEGURIDAD : "evaluada en"

    %% --- Bloque 5: Usuarios y Rutas ---
    RUTA }|--|{ EVALUACION_SEGURIDAD : "usa"
    RUTA ||--o{ UBICACION : "es origen de"
    RUTA ||--o{ HISTORICO_RUTA : "recoge"
    
    USUARIO ||--o{ RUTA : "solicita"
    USUARIO ||--o{ USUARIO_UBICACION_ACTUAL : "tiene"
    USUARIO_UBICACION_ACTUAL ||--o{ HISTORICO_USUARIO_UBICACION : "tuvo"

    UBICACION ||--o{ USUARIO_UBICACION_ACTUAL : "usuario en"

    EDIFICIO {
      int id_edificio PK
      varchar nombre
      text descripcion
      float latitud
      float longitud
      int capacidad_personas
      float superficie_metros_cuadrados
    }
    PLANTA {
      int id_planta PK
      float superficie_metros_cuadrados
      int id_edificio FK
    }
  %% las areas en las que se divide la planta del edificio
    AREA {
      int id_area PK
      int id_ubicacion FK
      varchar nombre
      text descripcion
      float superficie_metros_cuadrados
      int capacidad_personas
      boolean salida_segura
      int id_planta FK
      int id_tipo_area FK
    }
    TIPO_AREA {
      int id_tipo_area PK
      varchar nombre
      text descripcion
    }
  %% Seria lo que conecta a una area con otra
    CONEXION {
      int id_conexion PK
      int id_ubicacion FK
      varchar nombre
      text descripcion
      float distancia_metros
      int capacidad_flujo_personas_minuto
      float tiempo_estimado_segundos
      boolean bidireccional
      int id_area_origen FK
      int id_area_destino FK
      int id_tipo_conexion FK
    }
    TIPO_CONEXION {
      int id_tipo_conexion PK
      varchar nombre
      text descripcion
    }
  %% Esto es una superentidad referencial, para que muchas cosas esten referenciadas a una ubicación, en tipos setia una adyacencia o una AREA
    UBICACION {
      int id_ubicacion PK
      int id_tipo_ubicacion FK
    }
    TIPO_UBICACION {
      int id_tipo_ubicacion PK
      varchar nombre 
    }
  %% Estas tablas hasta lectura entiendo que son el procesamiento complejo de datos
    BALIZA {
      int id_baliza PK
      varchar nombre
      text descripcion
      boolean activa
      int id_ubicacion FK
    }
    SENSOR {
      int id_sensor PK 
      varchar nombre
      text descripcion
      boolean activa
    }
    VARIABLE {
      int id_variable PK
      varchar nombre
      text descripcion
      varchar unidad
    }
    BALIZA_SENSOR {
      int id PK
      int id_baliza FK
      int id_sensor FK 
      text descripcion
    }
    SENSOR_VARIABLE {
      int id PK
      int id_sensor FK
      int id_variable FK
      text descripcion
    }
  %% LECTURA pretendo que sea como un snapshot de las valores en cada una de las ubicaciones, solo guarde las ultimas lecturas y esta tabla no crezca en el tiempo, como un live
    LECTURA {
      int id_lectura PK
      int id_ubicacion FK
      int id_baliza FK
      int id_sensor FK
      int id_variable FK
      float valor
      timestamp datetime
    }
  %% Aqui me gustaria guardar cada uno de los cambios en lectura, que sirva como para auditar o coger varias medidas y calcular la media y a partir de eso definir cosas
    HISTORICO_LECTURAS {
      int id_historico_lecturas PK
      int id_ubicacion FK
      int id_baliza FK
      int id_sensor FK
      int id_variable FK
      timestamp datetime
      int id_lectura FK
    }
  %% Aqui asigno un grupo de lecturas, a estado asi un estado esta formado por varias lecturas, o esta asociado a varias lecturas
    ESTADO_HISTORICO_LECTURAS {
      int id PK
      int id_lectura FK
      int id_historico_lecturas FK
    }
  %% Con la misma intención que LECTURA esto muestra el ultimo estado (aunque es cierto que solo tiene una id dentro, aqui ya me pierdo un poco)
    ESTADO_ACTUAL {
      int id_estado_actual PK
      text descripcion
      timestamp datetime 
    }
  %% Voy guardando los nuevos estados aqui.
    HISTORICO_ESTADO {
      int id PK
      timestamp datetime
      int id_estado_actual FK
    }
  %% Aqui debería guardar el resultado de CEP de la evaluación de la seguridad segun el evento que da como resultado.
    EVALUACION_SEGURIDAD {
      int id_seguridad PK
      int id_ubicacion FK
      float valor_seguridad
      boolean requiere_evacuar
      text descripcion
      timestamp datetime
      int id_estado_actual FK
      int id_evento FK
    }
  %% Voy guardadno (aunque tiene solo id, eso me confunde)
    HISTORICO_EVALUACION_SEGURIDAD {
      int id PK
      timestamp datetime
      int id_seguridad FK
    }
  %% Aqui guardaria los eventos posibles como humo, fuego, CO2 alto, cosas asi, en teoria es estatico.
    EVENTO {
      int id_evento PK
      varchar nombre
      boolean requiere_evacuar
      VARCHAR tipo_de_evento
    }
  %% Aqui infomacion del usuario
    USUARIO {
        int id_usuario PK
        varchar nombre
        varchar correo
        timestamp creado_en
    }
  %% Aqui volcaria la ubicación de usiario tras la triangulación, estara en alguna ubicación
    USUARIO_UBICACION_ACTUAL {
        int id_ubicacion_usuario PK
        int id_usuario FK
        int id_ubicacion FK
        timestamp fecha
    }
  %% De esta forma se por que sitios ha estado el usuario.
    HISTORICO_USUARIO_UBICACION {
        int id PK
        int id_usuario FK
        int id_ubicacion FK
        timestamp deteccion
    }
  %% Aqui vuelco la ruta tras realizar la recomendación de ruta.
    RUTA {
      int id_ruta PK
      int id_ubicacion_origen FK
      timestamp fecha
      int tiempo_estimado_total
      jsonb ruta
      int id_seguridad FK
      int id_usuario FK
    }
  %% Voy guaradndo las rutas que se han recomendado durante toda la evacuación (solo guarad id, eso me confunde)
    HISTORICO_RUTA {
      int id PK
      int id_ruta FK
      timestamp datetime
    }

%% --- ESTILOS DE LAS TABLAS ---

%% --- Edificios y espacios ---

    style EDIFICIO fill:#E3F2FD,stroke:#64B5F6,stroke-width:2px
    style PLANTA fill:#E3F2FD,stroke:#64B5F6,stroke-width:2px
    style AREA fill:#E3F2FD,stroke:#64B5F6,stroke-width:2px
    style TIPO_AREA fill:#E3F2FD,stroke:#64B5F6,stroke-width:2px
    style CONEXION fill:#E3F2FD,stroke:#64B5F6,stroke-width:2px
    style TIPO_CONEXION fill:#E3F2FD,stroke:#64B5F6,stroke-width:2px

%% --- Sensores y lecturas ---

    style BALIZA fill:#E8F5E9,stroke:#66BB6A,stroke-width:2px
    style SENSOR fill:#E8F5E9,stroke:#66BB6A,stroke-width:2px
    style VARIABLE fill:#E8F5E9,stroke:#66BB6A,stroke-width:2px
    style BALIZA_SENSOR fill:#E8F5E9,stroke:#66BB6A,stroke-width:2px
    style SENSOR_VARIABLE fill:#E8F5E9,stroke:#66BB6A,stroke-width:2px
    style LECTURA fill:#E8F5E9,stroke:#66BB6A,stroke-width:2px
    style HISTORICO_LECTURAS fill:#E8F5E9,stroke:#66BB6A,stroke-width:2px

%% --- Seguridad ---

    style EVALUACION_SEGURIDAD fill:#F5F5DC,stroke:#A1887F,stroke-width:2px
    style HISTORICO_EVALUACION_SEGURIDAD fill:#F5F5DC,stroke:#A1887F,stroke-width:2px
    style ESTADO_ACTUAL fill:#F5F5DC,stroke:#A1887F,stroke-width:2px
    style HISTORICO_ESTADO fill:#F5F5DC,stroke:#A1887F,stroke-width:2px
    style EVENTO fill:#F5F5DC,stroke:#A1887F,stroke-width:2px
    style ESTADO_HISTORICO_LECTURAS fill:#F5F5DC,stroke:#A1887F,stroke-width:2px

%% --- Usuarios y Rutas ---

    style USUARIO fill:#EDE7F6,stroke:#5E35B1,stroke-width:2px
    style USUARIO_UBICACION_ACTUAL fill:#EDE7F6,stroke:#5E35B1,stroke-width:2px
    style HISTORICO_USUARIO_UBICACION fill:#EDE7F6,stroke:#5E35B1,stroke-width:2px
    style RUTA fill:#EDE7F6,stroke:#5E35B1,stroke-width:2px
    style HISTORICO_RUTA fill:#EDE7F6,stroke:#5E35B1,stroke-width:2px

    style UBICACION fill:#E0F7FA,stroke:#0097A7,stroke-width:2px
    style TIPO_UBICACIONUBICACION fill:#E0F7FA,stroke:#0097A7,stroke-width:2px







